{
    "asset" : {
        "generator" : "Khronos glTF Blender I/O v1.7.33",
        "version" : "2.0"
    },
    "scene" : 0,
    "scenes" : [
        {
            "name" : "Scene",
            "nodes" : [
                0
            ]
        }
    ],
    "nodes" : [
        {
            "mesh" : 0,
            "name" : "Cone",
            "translation" : [
                -0.08999999612569809,
                0,
                0
            ]
        }
    ],
    "materials" : [
        {
            "doubleSided" : true,
            "name" : "Material.001",
            "pbrMetallicRoughness" : {
                "baseColorFactor" : [
                    0.5206077694892883,
                    0.7771235704421997,
                    0.8000000715255737,
                    1
                ],
                "metallicFactor" : 0,
                "roughnessFactor" : 0.5
            }
        }
    ],
    "meshes" : [
        {
            "name" : "Cone",
            "primitives" : [
                {
                    "attributes" : {
                        "POSITION" : 0,
                        "NORMAL" : 1,
                        "TEXCOORD_0" : 2
                    },
                    "indices" : 3,
                    "material" : 0
                }
            ]
        }
    ],
    "accessors" : [
        {
            "bufferView" : 0,
            "componentType" : 5126,
            "count" : 4704,
            "max" : [
                0.5010111331939697,
                0.4972607493400574,
                0.5002385973930359
            ],
            "min" : [
                -0.501011073589325,
                -0.4972607493400574,
                -0.501268744468689
            ],
            "type" : "VEC3"
        },
        {
            "bufferView" : 1,
            "componentType" : 5126,
            "count" : 4704,
            "type" : "VEC3"
        },
        {
            "bufferView" : 2,
            "componentType" : 5126,
            "count" : 4704,
            "type" : "VEC2"
        },
        {
            "bufferView" : 3,
            "componentType" : 5123,
            "count" : 7056,
            "type" : "SCALAR"
        }
    ],
    "bufferViews" : [
        {
            "buffer" : 0,
            "byteLength" : 56448,
            "byteOffset" : 0
        },
        {
            "buffer" : 0,
            "byteLength" : 56448,
            "byteOffset" : 56448
        },
        {
            "buffer" : 0,
            "byteLength" : 37632,
            "byteOffset" : 112896
        },
        {
            "buffer" : 0,
            "byteLength" : 14112,
            "byteOffset" : 150528
        }
    ],
    "buffers" : [
        {
            "byteLength" : 164640,
            "uri" : "data:application/octet-stream;base64,"
        }
    ]
}
