{
    "asset" : {
        "generator" : "Khronos glTF Blender I/O v1.7.33",
        "version" : "2.0"
    },
    "scene" : 0,
    "scenes" : [
        {
            "name" : "Scene",
            "nodes" : [
                0,
                1
            ]
        }
    ],
    "nodes" : [
        {
            "mesh" : 0,
            "name" : "Sphere",
            "scale" : [
                0.25000014901161194,
                0.25,
                0.2500002384185791
            ]
        },
        {
            "mesh" : 1,
            "name" : "Torus"
        }
    ],
    "materials" : [
        {
            "doubleSided" : true,
            "name" : "Material.001",
            "pbrMetallicRoughness" : {
                "baseColorFactor" : [
                    0.8000000715255737,
                    0.004930698312819004,
                    0.006198760122060776,
                    1
                ],
                "metallicFactor" : 0,
                "roughnessFactor" : 0.5
            }
        },
        {
            "doubleSided" : true,
            "name" : "Material.002",
            "pbrMetallicRoughness" : {
                "baseColorFactor" : [
                    0.8000000715255737,
                    0.49684131145477295,
                    0.3354916572570801,
                    1
                ],
                "metallicFactor" : 0,
                "roughnessFactor" : 0.5
            }
        }
    ],
    "meshes" : [
        {
            "name" : "Sphere",
            "primitives" : [
                {
                    "attributes" : {
                        "POSITION" : 0,
                        "NORMAL" : 1,
                        "TEXCOORD_0" : 2
                    },
                    "indices" : 3,
                    "material" : 0
                }
            ]
        },
        {
            "name" : "Torus",
            "primitives" : [
                {
                    "attributes" : {
                        "POSITION" : 4,
                        "NORMAL" : 5,
                        "TEXCOORD_0" : 6
                    },
                    "indices" : 7,
                    "material" : 1
                }
            ]
        }
    ],
    "accessors" : [
        {
            "bufferView" : 0,
            "componentType" : 5126,
            "count" : 31744,
            "max" : [
                0.9872310161590576,
                0.9975767135620117,
                0.9872307181358337
            ],
            "min" : [
                -0.9872304201126099,
                -0.9975767135620117,
                -0.9872304201126099
            ],
            "type" : "VEC3"
        },
        {
            "bufferView" : 1,
            "componentType" : 5126,
            "count" : 31744,
            "type" : "VEC3"
        },
        {
            "bufferView" : 2,
            "componentType" : 5126,
            "count" : 31744,
            "type" : "VEC2"
        },
        {
            "bufferView" : 3,
            "componentType" : 5123,
            "count" : 47616,
            "type" : "SCALAR"
        },
        {
            "bufferView" : 4,
            "componentType" : 5126,
            "count" : 64512,
            "max" : [
                0.44827383756637573,
                0.029555372893810272,
                0.44827377796173096
            ],
            "min" : [
                -0.44827374815940857,
                -0.029555369168519974,
                -0.44827377796173096
            ],
            "type" : "VEC3"
        },
        {
            "bufferView" : 5,
            "componentType" : 5126,
            "count" : 64512,
            "type" : "VEC3"
        },
        {
            "bufferView" : 6,
            "componentType" : 5126,
            "count" : 64512,
            "type" : "VEC2"
        },
        {
            "bufferView" : 7,
            "componentType" : 5123,
            "count" : 96768,
            "type" : "SCALAR"
        }
    ],
    "bufferViews" : [
        {
            "buffer" : 0,
            "byteLength" : 380928,
            "byteOffset" : 0
        },
        {
            "buffer" : 0,
            "byteLength" : 380928,
            "byteOffset" : 380928
        },
        {
            "buffer" : 0,
            "byteLength" : 253952,
            "byteOffset" : 761856
        },
        {
            "buffer" : 0,
            "byteLength" : 95232,
            "byteOffset" : 1015808
        },
        {
            "buffer" : 0,
            "byteLength" : 774144,
            "byteOffset" : 1111040
        },
        {
            "buffer" : 0,
            "byteLength" : 774144,
            "byteOffset" : 1885184
        },
        {
            "buffer" : 0,
            "byteLength" : 516096,
            "byteOffset" : 2659328
        },
        {
            "buffer" : 0,
            "byteLength" : 193536,
            "byteOffset" : 3175424
        }
    ],
    "buffers" : [
        {
            "byteLength" : 3368960,
            "uri" : "hydrogen.bin"
        }
    ]
}
