{
    "asset" : {
        "generator" : "Khronos glTF Blender I/O v1.7.33",
        "version" : "2.0"
    },
    "scene" : 0,
    "scenes" : [
        {
            "name" : "Scene",
            "nodes" : [
                0
            ]
        }
    ],
    "nodes" : [
        {
            "mesh" : 0,
            "name" : "Sphere"
        }
    ],
    "materials" : [
        {
            "doubleSided" : true,
            "name" : "Material.001",
            "pbrMetallicRoughness" : {
                "baseColorFactor" : [
                    0.5249796509742737,
                    0.5605494379997253,
                    0.8000000715255737,
                    1
                ],
                "metallicFactor" : 0,
                "roughnessFactor" : 0.47826087474823
            }
        }
    ],
    "meshes" : [
        {
            "name" : "Sphere",
            "primitives" : [
                {
                    "attributes" : {
                        "POSITION" : 0,
                        "NORMAL" : 1,
                        "TEXCOORD_0" : 2
                    },
                    "indices" : 3,
                    "material" : 0
                }
            ]
        }
    ],
    "accessors" : [
        {
            "bufferView" : 0,
            "componentType" : 5126,
            "count" : 76472,
            "max" : [
                0.5989848375320435,
                0.5999571681022644,
                0.5991036891937256
            ],
            "min" : [
                -0.5989855527877808,
                -0.5999571681022644,
                -0.5991041660308838
            ],
            "type" : "VEC3"
        },
        {
            "bufferView" : 1,
            "componentType" : 5126,
            "count" : 76472,
            "type" : "VEC3"
        },
        {
            "bufferView" : 2,
            "componentType" : 5126,
            "count" : 76472,
            "type" : "VEC2"
        },
        {
            "bufferView" : 3,
            "componentType" : 5125,
            "count" : 114708,
            "type" : "SCALAR"
        }
    ],
    "bufferViews" : [
        {
            "buffer" : 0,
            "byteLength" : 917664,
            "byteOffset" : 0
        },
        {
            "buffer" : 0,
            "byteLength" : 917664,
            "byteOffset" : 917664
        },
        {
            "buffer" : 0,
            "byteLength" : 611776,
            "byteOffset" : 1835328
        },
        {
            "buffer" : 0,
            "byteLength" : 458832,
            "byteOffset" : 2447104
        }
    ],
    "buffers" : [
        {
            "byteLength" : 2905936,
            "uri" : "water.bin"
        }
    ]
}
