{
    "asset" : {
        "generator" : "Khronos glTF Blender I/O v1.7.33",
        "version" : "2.0"
    },
    "scene" : 0,
    "scenes" : [
        {
            "name" : "Scene",
            "nodes" : [
                0,
                1,
                2,
                3,
                4,
                5
            ]
        }
    ],
    "nodes" : [
        {
            "mesh" : 0,
            "name" : "Cylinder",
            "scale" : [
                0.35016608238220215,
                1.6152693033218384,
                0.35033223032951355
            ],
            "translation" : [
                -0.062393538653850555,
                1.3835935592651367,
                -0.0071961283683776855
            ]
        },
        {
            "name" : "Mball",
            "rotation" : [
                0,
                0.9442191123962402,
                0,
                -0.32931795716285706
            ],
            "scale" : [
                0.6321706771850586,
                0.6321706771850586,
                0.6321706771850586
            ],
            "translation" : [
                -0.059165988117456436,
                3.586941719055176,
                -0.002320405561476946
            ]
        },
        {
            "mesh" : 1,
            "name" : "Torus",
            "scale" : [
                0.6481187343597412,
                0.6481187343597412,
                0.6481187343597412
            ],
            "translation" : [
                -0.07558757066726685,
                2.9725539684295654,
                -0.05418189615011215
            ]
        },
        {
            "mesh" : 2,
            "name" : "Torus.001",
            "scale" : [
                0.6481187343597412,
                0.6481187343597412,
                0.6481187343597412
            ],
            "translation" : [
                -0.07543259859085083,
                2.852581739425659,
                -0.05744192749261856
            ]
        },
        {
            "mesh" : 3,
            "name" : "Torus.002",
            "scale" : [
                0.6481187343597412,
                0.6481187343597412,
                0.6481187343597412
            ],
            "translation" : [
                -0.07179789245128632,
                2.7186295986175537,
                -0.03240489959716797
            ]
        },
        {
            "mesh" : 4,
            "name" : "Cone",
            "scale" : [
                0.3999999761581421,
                1.3287099599838257,
                0.41815635561943054
            ],
            "translation" : [
                -0.04845619201660156,
                4.6044535636901855,
                -0.011121511459350586
            ]
        }
    ],
    "materials" : [
        {
            "doubleSided" : true,
            "name" : "Material.001",
            "pbrMetallicRoughness" : {
                "baseColorFactor" : [
                    0.2882959246635437,
                    0.2882959246635437,
                    0.2882959246635437,
                    1
                ],
                "metallicFactor" : 0.2753623127937317,
                "roughnessFactor" : 0.5
            }
        },
        {
            "doubleSided" : true,
            "name" : "Material.004",
            "pbrMetallicRoughness" : {
                "baseColorFactor" : [
                    0.10461650043725967,
                    0.0423114150762558,
                    0.07618540525436401,
                    1
                ],
                "metallicFactor" : 0.11594203114509583,
                "roughnessFactor" : 0.5
            }
        },
        {
            "doubleSided" : true,
            "name" : "Material.003",
            "pbrMetallicRoughness" : {
                "baseColorFactor" : [
                    0.17144110798835754,
                    0.06301002949476242,
                    0.11953844130039215,
                    1
                ],
                "metallicFactor" : 0,
                "roughnessFactor" : 0.5
            }
        },
        {
            "doubleSided" : true,
            "name" : "Material.002",
            "pbrMetallicRoughness" : {
                "baseColorFactor" : [
                    0.45705848932266235,
                    0.1645987629890442,
                    0.31345391273498535,
                    1
                ],
                "metallicFactor" : 0.11594203114509583,
                "roughnessFactor" : 0.5
            }
        },
        {
            "doubleSided" : true,
            "name" : "Material.006",
            "pbrMetallicRoughness" : {
                "baseColorFactor" : [
                    0.013410245068371296,
                    0.013410245068371296,
                    0.013410245068371296,
                    1
                ],
                "metallicFactor" : 0,
                "roughnessFactor" : 0.5
            }
        }
    ],
    "meshes" : [
        {
            "name" : "Cylinder",
            "primitives" : [
                {
                    "attributes" : {
                        "POSITION" : 0,
                        "NORMAL" : 1,
                        "TEXCOORD_0" : 2
                    },
                    "indices" : 3,
                    "material" : 0
                }
            ]
        },
        {
            "name" : "Torus",
            "primitives" : [
                {
                    "attributes" : {
                        "POSITION" : 4,
                        "NORMAL" : 5,
                        "TEXCOORD_0" : 6
                    },
                    "indices" : 7,
                    "material" : 1
                }
            ]
        },
        {
            "name" : "Torus.001",
            "primitives" : [
                {
                    "attributes" : {
                        "POSITION" : 8,
                        "NORMAL" : 9,
                        "TEXCOORD_0" : 10
                    },
                    "indices" : 7,
                    "material" : 2
                }
            ]
        },
        {
            "name" : "Torus.003",
            "primitives" : [
                {
                    "attributes" : {
                        "POSITION" : 11,
                        "NORMAL" : 12,
                        "TEXCOORD_0" : 13
                    },
                    "indices" : 7,
                    "material" : 3
                }
            ]
        },
        {
            "name" : "Cone",
            "primitives" : [
                {
                    "attributes" : {
                        "POSITION" : 14,
                        "NORMAL" : 15,
                        "TEXCOORD_0" : 16
                    },
                    "indices" : 17,
                    "material" : 4
                }
            ]
        }
    ],
    "accessors" : [
        {
            "bufferView" : 0,
            "componentType" : 5126,
            "count" : 306,
            "max" : [
                0.9995257258415222,
                1,
                0.9981033205986023
            ],
            "min" : [
                -0.9995257258415222,
                -1,
                -1
            ],
            "type" : "VEC3"
        },
        {
            "bufferView" : 1,
            "componentType" : 5126,
            "count" : 306,
            "type" : "VEC3"
        },
        {
            "bufferView" : 2,
            "componentType" : 5126,
            "count" : 306,
            "type" : "VEC2"
        },
        {
            "bufferView" : 3,
            "componentType" : 5123,
            "count" : 600,
            "type" : "SCALAR"
        },
        {
            "bufferView" : 4,
            "componentType" : 5126,
            "count" : 10534,
            "max" : [
                0.8799999952316284,
                0.10953076183795929,
                0.8792863488197327
            ],
            "min" : [
                -0.8799999952316284,
                -0.10953076183795929,
                -0.8792863488197327
            ],
            "type" : "VEC3"
        },
        {
            "bufferView" : 5,
            "componentType" : 5126,
            "count" : 10534,
            "type" : "VEC3"
        },
        {
            "bufferView" : 6,
            "componentType" : 5126,
            "count" : 10534,
            "type" : "VEC2"
        },
        {
            "bufferView" : 7,
            "componentType" : 5123,
            "count" : 15912,
            "type" : "SCALAR"
        },
        {
            "bufferView" : 8,
            "componentType" : 5126,
            "count" : 10534,
            "max" : [
                0.8799999952316284,
                0.10953076183795929,
                0.8792863488197327
            ],
            "min" : [
                -0.8799999952316284,
                -0.10953076183795929,
                -0.8792863488197327
            ],
            "type" : "VEC3"
        },
        {
            "bufferView" : 9,
            "componentType" : 5126,
            "count" : 10534,
            "type" : "VEC3"
        },
        {
            "bufferView" : 10,
            "componentType" : 5126,
            "count" : 10534,
            "type" : "VEC2"
        },
        {
            "bufferView" : 11,
            "componentType" : 5126,
            "count" : 10534,
            "max" : [
                0.8799999952316284,
                0.10953076183795929,
                0.8792863488197327
            ],
            "min" : [
                -0.8799999952316284,
                -0.10953076183795929,
                -0.8792863488197327
            ],
            "type" : "VEC3"
        },
        {
            "bufferView" : 12,
            "componentType" : 5126,
            "count" : 10534,
            "type" : "VEC3"
        },
        {
            "bufferView" : 13,
            "componentType" : 5126,
            "count" : 10534,
            "type" : "VEC2"
        },
        {
            "bufferView" : 14,
            "componentType" : 5126,
            "count" : 128,
            "max" : [
                1,
                1,
                1
            ],
            "min" : [
                -1,
                -1,
                -1
            ],
            "type" : "VEC3"
        },
        {
            "bufferView" : 15,
            "componentType" : 5126,
            "count" : 128,
            "type" : "VEC3"
        },
        {
            "bufferView" : 16,
            "componentType" : 5126,
            "count" : 128,
            "type" : "VEC2"
        },
        {
            "bufferView" : 17,
            "componentType" : 5123,
            "count" : 186,
            "type" : "SCALAR"
        }
    ],
    "bufferViews" : [
        {
            "buffer" : 0,
            "byteLength" : 3672,
            "byteOffset" : 0
        },
        {
            "buffer" : 0,
            "byteLength" : 3672,
            "byteOffset" : 3672
        },
        {
            "buffer" : 0,
            "byteLength" : 2448,
            "byteOffset" : 7344
        },
        {
            "buffer" : 0,
            "byteLength" : 1200,
            "byteOffset" : 9792
        },
        {
            "buffer" : 0,
            "byteLength" : 126408,
            "byteOffset" : 10992
        },
        {
            "buffer" : 0,
            "byteLength" : 126408,
            "byteOffset" : 137400
        },
        {
            "buffer" : 0,
            "byteLength" : 84272,
            "byteOffset" : 263808
        },
        {
            "buffer" : 0,
            "byteLength" : 31824,
            "byteOffset" : 348080
        },
        {
            "buffer" : 0,
            "byteLength" : 126408,
            "byteOffset" : 379904
        },
        {
            "buffer" : 0,
            "byteLength" : 126408,
            "byteOffset" : 506312
        },
        {
            "buffer" : 0,
            "byteLength" : 84272,
            "byteOffset" : 632720
        },
        {
            "buffer" : 0,
            "byteLength" : 126408,
            "byteOffset" : 716992
        },
        {
            "buffer" : 0,
            "byteLength" : 126408,
            "byteOffset" : 843400
        },
        {
            "buffer" : 0,
            "byteLength" : 84272,
            "byteOffset" : 969808
        },
        {
            "buffer" : 0,
            "byteLength" : 1536,
            "byteOffset" : 1054080
        },
        {
            "buffer" : 0,
            "byteLength" : 1536,
            "byteOffset" : 1055616
        },
        {
            "buffer" : 0,
            "byteLength" : 1024,
            "byteOffset" : 1057152
        },
        {
            "buffer" : 0,
            "byteLength" : 372,
            "byteOffset" : 1058176
        }
    ],
    "buffers" : [
        {
            "byteLength" : 1058548,
            "uri" : "data:application/octet-stream;base64,"
        }
    ]
}
